<svg width="69" height="69" viewBox="0 0 69 69" fill="none" xmlns="http://www.w3.org/2000/svg">
<g clip-path="url(#clip0)">
<path d="M65.1918 69.0003C67.2947 69.0003 69 67.2952 69 65.1921V3.80821C69 1.70479 67.2947 0 65.1918 0H3.80821C1.70452 0 0 1.70479 0 3.80821V65.1921C0 67.2952 1.70452 69.0003 3.80821 69.0003H65.1918Z" fill="#395185"/>
<path d="M47.6087 69.0003V42.2798H56.5779L57.9207 31.8664H47.6087V25.2176C47.6087 22.2026 48.4461 20.148 52.7696 20.148L58.284 20.1456V10.8319C57.3298 10.705 54.0567 10.4214 50.2487 10.4214C42.2981 10.4214 36.8552 15.2743 36.8552 24.1867V31.8664H27.8631V42.2798H36.8552V69.0003H47.6087Z" fill="white"/>
</g>
<defs>
<clipPath id="clip0">
<rect width="69" height="69" fill="white"/>
</clipPath>
</defs>
</svg>
