<svg width="82" height="82" viewBox="0 0 82 82" fill="none" xmlns="http://www.w3.org/2000/svg">
<path d="M40.9999 7.38754C51.9474 7.38754 53.2441 7.4292 57.5674 7.62645C61.5648 7.8089 63.7357 8.47682 65.1806 9.03815C67.0942 9.78191 68.4602 10.6705 69.8948 12.1052C71.3295 13.5398 72.2181 14.9058 72.9617 16.8194C73.5232 18.2643 74.1911 20.4352 74.3735 24.4325C74.5708 28.7559 74.6125 30.0526 74.6125 41.0001C74.6125 51.9476 74.5708 53.2442 74.3735 57.5675C74.1911 61.565 73.5232 63.7359 72.9617 65.1808C72.2181 67.0944 71.3295 68.4604 69.8948 69.895C68.4602 71.3296 67.0942 72.2183 65.1806 72.9619C63.7357 73.5233 61.5648 74.1913 57.5674 74.3737C53.2447 74.571 51.9481 74.6126 40.9999 74.6126C30.0517 74.6126 28.7551 74.571 24.4325 74.3737C20.435 74.1913 18.2641 73.5233 16.8194 72.9619C14.9056 72.2183 13.5396 71.3296 12.105 69.895C10.6704 68.4604 9.78175 67.0944 9.03815 65.1808C8.47666 63.7359 7.80873 61.565 7.62629 57.5677C7.42904 53.2442 7.38737 51.9476 7.38737 41.0001C7.38737 30.0526 7.42904 28.7559 7.62629 24.4326C7.80873 20.4352 8.47666 18.2643 9.03815 16.8194C9.78175 14.9058 10.6704 13.5398 12.105 12.1052C13.5396 10.6705 14.9056 9.78191 16.8194 9.03815C18.2641 8.47682 20.435 7.8089 24.4323 7.62645C28.7558 7.4292 30.0524 7.38754 40.9999 7.38754ZM40.9999 0C29.8649 0 28.4688 0.0471974 24.0958 0.246729C19.7316 0.445934 16.7513 1.13892 14.1433 2.15253C11.4472 3.20031 9.1607 4.60224 6.88139 6.88155C4.60207 9.16086 3.20015 11.4473 2.15237 14.1434C1.13876 16.7515 0.445772 19.7318 0.246566 24.0959C0.0470347 28.4688 0 29.8651 0 41.0001C0 52.1351 0.0470347 53.5313 0.246566 57.9042C0.445772 62.2684 1.13876 65.2487 2.15237 67.8567C3.20015 70.5527 4.60207 72.8393 6.88139 75.1186C9.1607 77.3979 11.4472 78.7999 14.1433 79.8476C16.7513 80.8612 19.7316 81.5542 24.0958 81.7534C28.4688 81.953 29.8649 82 40.9999 82C52.1349 82 53.5312 81.953 57.9041 81.7534C62.2682 81.5542 65.2485 80.8612 67.8566 79.8476C70.5527 78.7999 72.8391 77.3979 75.1185 75.1186C77.3978 72.8393 78.7997 70.5528 79.8475 67.8567C80.8611 65.2487 81.5541 62.2684 81.7533 57.9042C81.9528 53.5313 82 52.1351 82 41.0001C82 29.8651 81.9528 28.4688 81.7533 24.0959C81.5541 19.7318 80.8611 16.7515 79.8475 14.1434C78.7997 11.4473 77.3978 9.16086 75.1185 6.88155C72.8391 4.60224 70.5527 3.20031 67.8566 2.15253C65.2485 1.13892 62.2682 0.445934 57.9041 0.246729C53.5312 0.0471974 52.1349 0 40.9999 0ZM40.9999 19.946C29.3721 19.946 19.9458 29.3723 19.9458 41.0001C19.9458 52.6279 29.3721 62.0542 40.9999 62.0542C52.6277 62.0542 62.054 52.6279 62.054 41.0001C62.054 29.3723 52.6277 19.946 40.9999 19.946ZM40.9999 54.6668C33.4521 54.6668 27.3332 48.5479 27.3332 41.0001C27.3332 33.4522 33.4521 27.3333 40.9999 27.3333C48.5478 27.3333 54.6667 33.4522 54.6667 41.0001C54.6667 48.5479 48.5478 54.6668 40.9999 54.6668ZM67.8058 19.1141C67.8058 21.8314 65.6031 24.0342 62.8859 24.0342C60.1686 24.0342 57.9658 21.8314 57.9658 19.1141C57.9658 16.3969 60.1686 14.1942 62.8859 14.1942C65.6031 14.1942 67.8058 16.3969 67.8058 19.1141Z" fill="url(#paint0_linear)"/>
<defs>
<linearGradient id="paint0_linear" x1="41" y1="0" x2="41" y2="82" gradientUnits="userSpaceOnUse">
<stop stop-color="#405DE6"/>
<stop offset="0.21875" stop-color="#5851DB"/>
<stop offset="0.364583" stop-color="#833AB4"/>
<stop offset="0.53125" stop-color="#C13584"/>
<stop offset="0.703125" stop-color="#FD1D1D" stop-opacity="0.64"/>
<stop offset="0.9996" stop-color="#F56040" stop-opacity="0.421463"/>
<stop offset="0.9997" stop-color="#F77737" stop-opacity="0.265366"/>
<stop offset="0.9998" stop-color="#FCAF45" stop-opacity="0.124878"/>
<stop offset="0.9999" stop-color="#FFDC80" stop-opacity="0.101463"/>
<stop offset="1" stop-color="#E1306C" stop-opacity="0"/>
</linearGradient>
</defs>
</svg>
