<svg width="284" height="72" viewBox="0 0 284 72" fill="none" xmlns="http://www.w3.org/2000/svg">
<path d="M278.322 0H217.073C214.146 0 211.768 2.3164 211.768 5.17252V66.5859C211.768 69.4446 214.146 71.7645 217.073 71.7645H278.322C281.254 71.7645 283.643 69.4446 283.643 66.5859V5.17252C283.643 2.3164 281.254 0 278.322 0Z" fill="#006087"/>
<path d="M227.757 9.88007C231.166 9.88007 233.935 12.6455 233.935 16.0498C233.935 19.4566 231.166 22.2231 227.757 22.2231C224.341 22.2231 221.575 19.4566 221.575 16.0498C221.575 12.6455 224.341 9.88007 227.757 9.88007ZM222.424 26.9047H233.085V61.1528H222.424V26.9047Z" fill="white"/>
<path d="M239.771 26.9047H249.997V31.5838H250.139C251.562 28.8917 255.039 26.0525 260.225 26.0525C271.02 26.0525 273.013 33.1457 273.013 42.3669V61.1528H262.361V44.4979C262.361 40.5245 262.287 35.4163 256.821 35.4163C251.273 35.4163 250.424 39.7431 250.424 44.2104V61.1528H239.771V26.9047Z" fill="white"/>
</svg>
