<svg width="88" height="87" viewBox="0 0 88 87" fill="none" xmlns="http://www.w3.org/2000/svg">
<g clip-path="url(#clip0)">
<path d="M86.3241 11.5073L86.7255 69.7147C86.1356 68.3853 85.2934 67.1434 84.1991 66.0641L64.5921 46.7256L64.3503 11.6588C64.3085 5.59848 69.2011 0.637894 75.2614 0.596108C81.3217 0.554321 86.2823 5.44697 86.3241 11.5073Z" fill="#2DB2C4" stroke="black"/>
<path d="M43.307 59.0072L22.9452 79.6229C23.4754 78.2564 23.7629 76.7686 23.7521 75.2044L23.5622 47.6604L32.7224 38.3976C31.0524 42.7214 31.9748 47.8041 35.4735 51.281L35.4749 51.2824L43.307 59.0072Z" fill="#FDA719" stroke="black"/>
<path d="M64.0241 74.9715C64.0684 76.5184 64.3856 78.026 64.9426 79.4131L44.2812 59.0347L52.0063 51.2023L52.0077 51.2009C55.4471 47.6873 56.3054 42.5934 54.5962 38.3049L63.834 47.4162L64.0239 74.9606L64.0238 74.9606L64.0241 74.9715Z" fill="#3643FA" stroke="black"/>
<path d="M51.4988 50.6681L43.7737 58.5005L35.9426 50.7767C35.9424 50.7764 35.9421 50.7762 35.9419 50.776C31.634 46.4942 31.586 39.5589 35.834 35.2178C40.1168 30.9095 47.085 30.8636 51.3909 35.1099C55.7 39.3929 55.7459 46.362 51.4988 50.6681Z" fill="#801434" stroke="black"/>
<path d="M1.79606 70.9684L1.79942 70.9598L1.80248 70.9512C2.33436 69.4484 3.31424 68.1366 4.47165 66.896C5.04946 66.2767 5.66508 65.6817 6.28503 65.0915C6.38728 64.9941 6.48975 64.8968 6.5922 64.7995C7.10757 64.3101 7.62242 63.8212 8.10558 63.3313L15.879 55.45L22.8047 48.428C22.8383 53.2729 22.874 58.097 22.9389 62.9788L22.9391 62.9991L22.9392 63.0212L22.9394 63.0432L22.9395 63.0653L22.9397 63.0873L22.9398 63.1093L22.94 63.1314L22.9401 63.1534L22.9403 63.1754L22.9404 63.1974L22.9406 63.2195L22.9407 63.2415L22.9409 63.2635L22.941 63.2856L22.9412 63.3076L22.9413 63.3296L22.9415 63.3516L22.9417 63.3737L22.9418 63.3957L22.942 63.4177L22.9421 63.4397L22.9423 63.4618L22.9424 63.4838L22.9426 63.5058L22.9427 63.5278L22.9429 63.5498L22.943 63.5719L22.9432 63.5939L22.9433 63.6159L22.9435 63.6379L22.9436 63.6599L22.9438 63.6819L22.9439 63.704L22.9441 63.726L22.9442 63.748L22.9444 63.77L22.9445 63.792L22.9447 63.814L22.9448 63.836L22.945 63.858L22.9451 63.8801L22.9453 63.9021L22.9454 63.9241L22.9456 63.9461L22.9457 63.9681L22.9459 63.9901L22.9461 64.0121L22.9462 64.0341L22.9464 64.0561L22.9465 64.0781L22.9467 64.1001L22.9468 64.1221L22.947 64.1441L22.9471 64.1661L22.9473 64.1881L22.9474 64.2101L22.9476 64.2321L22.9477 64.2541L22.9479 64.2761L22.948 64.2981L22.9482 64.3201L22.9483 64.3421L22.9485 64.3641L22.9486 64.3861L22.9488 64.4081L22.9489 64.4301L22.9491 64.4521L22.9492 64.4741L22.9494 64.4961L22.9495 64.5181L22.9497 64.54L22.9498 64.562L22.95 64.584L22.9501 64.606L22.9503 64.628L22.9505 64.65L22.9506 64.672L22.9508 64.694L22.9509 64.716L22.9511 64.7379L22.9512 64.7599L22.9514 64.7819L22.9515 64.8039L22.9517 64.8259L22.9518 64.8479L22.952 64.8698L22.9521 64.8918L22.9523 64.9138L22.9524 64.9358L22.9526 64.9578L22.9527 64.9798L22.9529 65.0017L22.953 65.0237L22.9532 65.0457L22.9533 65.0677L22.9535 65.0897L22.9536 65.1116L22.9538 65.1336L22.9539 65.1556L22.9541 65.1776L22.9542 65.1995L22.9544 65.2215L22.9545 65.2435L22.9547 65.2655L22.9548 65.2874L22.955 65.3094L22.9551 65.3314L22.9553 65.3534L22.9555 65.3753L22.9556 65.3973L22.9558 65.4193L22.9559 65.4412L22.9561 65.4632L22.9562 65.4852L22.9564 65.5071L22.9565 65.5291L22.9567 65.5511L22.9568 65.5731L22.957 65.595L22.9571 65.617L22.9573 65.639L22.9574 65.6609L22.9576 65.6829L22.9577 65.7049L22.9579 65.7268L22.958 65.7488L22.9582 65.7707L22.9583 65.7927L22.9585 65.8147L22.9586 65.8366L22.9588 65.8586L22.9589 65.8806L22.9591 65.9025L22.9592 65.9245L22.9594 65.9464L22.9595 65.9684L22.9597 65.9904L22.9598 66.0123L22.96 66.0343L22.9601 66.0562L22.9603 66.0782L22.9605 66.1002L22.9606 66.1221L22.9608 66.1441L22.9609 66.166L22.9611 66.188L22.9612 66.21L22.9614 66.2319L22.9615 66.2539L22.9617 66.2758L22.9618 66.2978L22.962 66.3197L22.9621 66.3417L22.9623 66.3636L22.9624 66.3856L22.9626 66.4076L22.9627 66.4295L22.9629 66.4515L22.963 66.4734L22.9632 66.4954L22.9633 66.5173L22.9635 66.5393L22.9636 66.5612L22.9638 66.5832L22.9639 66.6051L22.9641 66.6271L22.9642 66.649L22.9644 66.671L22.9645 66.6929L22.9647 66.7149L22.9648 66.7368L22.965 66.7588L22.9651 66.7807L22.9653 66.8027L22.9654 66.8246L22.9656 66.8466L22.9657 66.8685L22.9659 66.8905L22.9661 66.9124L22.9662 66.9344L22.9664 66.9563L22.9665 66.9783L22.9667 67.0002L22.9668 67.0222L22.967 67.0441L22.9671 67.0661L22.9673 67.088L22.9674 67.11L22.9676 67.1319L22.9677 67.1538L22.9679 67.1758L22.968 67.1977L22.9682 67.2197L22.9683 67.2416L22.9685 67.2636L22.9686 67.2855L22.9688 67.3075L22.9689 67.3294L22.9691 67.3513L22.9692 67.3733L22.9694 67.3952L22.9695 67.4172L22.9697 67.4391L22.9698 67.4611L22.97 67.483L22.9701 67.5049L22.9703 67.5269L22.9704 67.5488L22.9706 67.5708L22.9707 67.5927L22.9709 67.6147L22.971 67.6366L22.9712 67.6585L22.9713 67.6805L22.9715 67.7024L22.9716 67.7244L22.9718 67.7463L22.972 67.7683L22.9721 67.7902L22.9723 67.8121L22.9724 67.8341L22.9726 67.856L22.9727 67.878L22.9729 67.8999L22.973 67.9218L22.9732 67.9438L22.9733 67.9657L22.9735 67.9877L22.9736 68.0096L22.9738 68.0315L22.9739 68.0535L22.9741 68.0754L22.9742 68.0974L22.9744 68.1193L22.9745 68.1412L22.9747 68.1632L22.9748 68.1851L22.975 68.2071L22.9751 68.229L22.9753 68.2509L22.9754 68.2729L22.9756 68.2948L22.9757 68.3168L22.9759 68.3387L22.976 68.3606L22.9762 68.3826L22.9763 68.4045L22.9765 68.4264L22.9766 68.4484L22.9768 68.4703L22.9769 68.4923L22.9771 68.5142L22.9772 68.5361L22.9774 68.5581L22.9775 68.58L22.9777 68.602L22.9779 68.6239L22.978 68.6458L22.9782 68.6678L22.9783 68.6897L22.9785 68.7117L22.9786 68.7336L22.9788 68.7555L22.9789 68.7775L22.9791 68.7994L22.9792 68.8214L22.9794 68.8433L22.9795 68.8652L22.9797 68.8872L22.9798 68.9091L22.98 68.931L22.9801 68.953L22.9803 68.9749L22.9804 68.9969L22.9806 69.0188L22.9807 69.0407L22.9809 69.0627L22.981 69.0846L22.9812 69.1066L22.9813 69.1285L22.9815 69.1504L22.9816 69.1724L22.9818 69.1943L22.9819 69.2163L22.9821 69.2382L22.9822 69.2601L22.9824 69.2821L22.9825 69.304L22.9827 69.326L22.9828 69.3479L22.983 69.3698L22.9831 69.3918L22.9833 69.4137L22.9834 69.4357L22.9836 69.4576L22.9838 69.4796L22.9839 69.5015L22.9841 69.5234L22.9842 69.5454L22.9844 69.5673L22.9845 69.5893L22.9847 69.6112L22.9848 69.6331L22.985 69.6551L22.9851 69.677L22.9853 69.699L22.9854 69.7209L22.9856 69.7429L22.9857 69.7648L22.9859 69.7867L22.986 69.8087L22.9862 69.8306L22.9863 69.8526L22.9865 69.8745L22.9866 69.8965L22.9868 69.9184L22.9869 69.9404L22.9871 69.9623L22.9872 69.9842L22.9874 70.0062L22.9875 70.0281L22.9877 70.0501L22.9878 70.072L22.988 70.094L22.9881 70.1159L22.9883 70.1379L22.9884 70.1598L22.9886 70.1818L22.9887 70.2037L22.9889 70.2257L22.989 70.2476L22.9892 70.2695L22.9893 70.2915L22.9895 70.3134L22.9897 70.3354L22.9898 70.3573L22.99 70.3793L22.9901 70.4012L22.9903 70.4232L22.9904 70.4451L22.9906 70.4671L22.9907 70.489L22.9909 70.511L22.991 70.5329L22.9912 70.5549L22.9913 70.5768L22.9915 70.5988L22.9916 70.6207L22.9918 70.6427L22.9919 70.6646L22.9921 70.6866L22.9922 70.7086L22.9924 70.7305L22.9925 70.7525L22.9927 70.7744L22.9928 70.7964L22.993 70.8183L22.9931 70.8403L22.9933 70.8622L22.9934 70.8842L22.9936 70.9061L22.9937 70.9281L22.9939 70.9501L22.994 70.972L22.9942 70.994L22.9943 71.0159L22.9945 71.0379L22.9946 71.0598L22.9948 71.0818L22.995 71.1038L22.9951 71.1257L22.9953 71.1477L22.9954 71.1696L22.9956 71.1916L22.9957 71.2136L22.9959 71.2355L22.996 71.2575L22.9962 71.2794L22.9963 71.3014L22.9965 71.3234L22.9966 71.3453L22.9968 71.3673L22.9969 71.3892L22.9971 71.4112L22.9972 71.4332L22.9974 71.4551L22.9975 71.4771L22.9977 71.4991L22.9978 71.521L22.998 71.543L22.9981 71.565L22.9983 71.5869L22.9984 71.6089L22.9986 71.6309L22.9987 71.6528L22.9989 71.6748L22.999 71.6968L22.9992 71.7187L22.9993 71.7407L22.9995 71.7627L22.9996 71.7847L22.9998 71.8066L22.9999 71.8286L23.0001 71.8506L23.0003 71.8725L23.0004 71.8945L23.0006 71.9165L23.0007 71.9385L23.0009 71.9604L23.001 71.9824L23.0012 72.0044L23.0013 72.0264L23.0015 72.0483L23.0016 72.0703L23.0018 72.0923L23.0019 72.1143L23.0021 72.1362L23.0022 72.1582L23.0024 72.1802L23.0025 72.2022L23.0027 72.2242L23.0028 72.2461L23.003 72.2681L23.0031 72.2901L23.0033 72.3121L23.0034 72.3341L23.0036 72.3561L23.0037 72.378L23.0039 72.4L23.004 72.422L23.0042 72.444L23.0043 72.466L23.0045 72.488L23.0046 72.51L23.0048 72.5319L23.0049 72.5539L23.0051 72.5759L23.0053 72.5979L23.0054 72.6199L23.0056 72.6419L23.0057 72.6639L23.0059 72.6859L23.006 72.7079L23.0062 72.7299L23.0063 72.7518L23.0065 72.7738L23.0066 72.7958L23.0068 72.8178L23.0069 72.8398L23.0071 72.8618L23.0072 72.8838L23.0074 72.9058L23.0075 72.9278L23.0077 72.9498L23.0078 72.9718L23.008 72.9938L23.0081 73.0158L23.0083 73.0378L23.0084 73.0598L23.0086 73.0818L23.0087 73.1038L23.0089 73.1258L23.009 73.1478L23.0092 73.1698L23.0093 73.1918L23.0095 73.2138L23.0097 73.2358L23.0098 73.2578L23.01 73.2798L23.0101 73.3019L23.0103 73.3239L23.0104 73.3459L23.0106 73.3679L23.0107 73.3899L23.0109 73.4119L23.011 73.4339L23.0112 73.4559L23.0113 73.4779L23.0115 73.5L23.0116 73.522L23.0118 73.544L23.0119 73.566L23.0121 73.588L23.0122 73.61L23.0124 73.6321L23.0125 73.6541L23.0127 73.6761L23.0128 73.6981L23.013 73.7201L23.0131 73.7422L23.0133 73.7642L23.0134 73.7862L23.0136 73.8082L23.0138 73.8303L23.0139 73.8523L23.0141 73.8743L23.0142 73.8963L23.0144 73.9184L23.0145 73.9404L23.0147 73.9624L23.0148 73.9844L23.015 74.0065L23.0151 74.0285L23.0153 74.0505L23.0154 74.0726L23.0156 74.0946L23.0157 74.1166L23.0159 74.1387L23.016 74.1607L23.0162 74.1827L23.0163 74.2048L23.0165 74.2268L23.0165 74.2349L23.0169 74.2429C23.0964 76.2729 22.782 78.0235 21.9521 79.7779L21.9521 79.778C20.3289 83.2121 17.109 85.3502 13.3887 85.9643C9.59639 86.569 5.55868 84.7257 3.26446 81.6888L3.26394 81.6881C0.941954 78.6255 0.394626 74.5102 1.79606 70.9684Z" fill="#D02F28" stroke="black"/>
<path d="M64.0935 46.9362C64.1444 54.3231 64.1954 61.7099 64.2463 69.0968C64.2687 72.3497 63.8873 76.0121 65.1621 79.053C66.6434 82.567 69.9835 85.3565 73.7828 85.9403C77.8193 86.5224 81.9102 85.1726 84.5315 82.0031C87.0857 78.9358 87.8356 74.6609 86.6235 70.874C86 68.9129 84.8031 67.3285 83.2682 65.882C80.5729 63.2235 77.9116 60.5988 75.2504 57.974C71.5315 54.306 67.8126 50.6381 64.0935 46.9362Z" fill="#263D81"/>
<path d="M3.45642 66.6211C2.37713 67.7154 1.55212 68.9688 0.980662 70.3061L0.579314 12.0987C0.537527 6.03842 5.43018 1.07784 11.4905 1.03605C17.5508 0.994263 22.5114 5.88691 22.5531 11.9472L22.7949 47.0141L3.45642 66.6211Z" fill="#FD355F" stroke="black"/>
<path d="M47.0648 39.5307C45.1884 37.6801 42.1052 37.7013 40.2545 39.5777C38.4038 41.454 38.4251 44.5373 40.3015 46.388C42.1778 48.2386 45.2611 48.2174 47.1117 46.341C48.9624 44.4646 48.907 41.3477 47.0648 39.5307Z" fill="white"/>
<path d="M11.5985 16.8331C14.2556 16.8148 16.3949 14.6458 16.3765 11.9887C16.3582 9.33149 14.1893 7.19228 11.5321 7.2106C8.87495 7.22892 6.73574 9.39784 6.75406 12.055C6.77238 14.7122 8.9413 16.8514 11.5985 16.8331Z" fill="white"/>
<path d="M75.37 16.3939C78.0271 16.3756 80.1663 14.2067 80.148 11.5495C80.1297 8.89231 77.9608 6.7531 75.3036 6.77142C72.6464 6.78974 70.5072 8.95866 70.5255 11.6158C70.5439 14.273 72.7128 16.4122 75.37 16.3939Z" fill="white"/>
<path d="M12.0336 79.8591C14.6908 79.8408 16.83 77.6719 16.8117 75.0147C16.7933 72.3575 14.6244 70.2183 11.9672 70.2366C9.31007 70.255 7.17086 72.4239 7.18918 75.0811C7.2075 77.7382 9.37642 79.8775 12.0336 79.8591Z" fill="white"/>
<path d="M75.8045 79.4194C78.4617 79.4011 80.6009 77.2321 80.5826 74.575C80.5643 71.9178 78.3954 69.7786 75.7382 69.7969C73.081 69.8152 70.9418 71.9841 70.9601 74.6413C70.9784 77.2985 73.1474 79.4377 75.8045 79.4194Z" fill="white"/>
</g>
<defs>
<clipPath id="clip0">
<rect width="86.7468" height="86.0691" fill="white" transform="translate(0 0.598114) rotate(-0.395056)"/>
</clipPath>
</defs>
</svg>
